Coordinates
version=1
nRows=14
nColumns=63
inDegrees=yes

Units are S.I. units (second, meters, Newtons, ...)
If the header above contains a line with 'inDegrees', this indicates whether rotational values are in degrees (yes) or radians (no).

endheader
time	pelvis_tilt	pelvis_list	pelvis_rotation	pelvis_tx	pelvis_ty	pelvis_tz	hip_flexion_r	hip_adduction_r	hip_rotation_r	knee_angle_r	knee_angle_r_beta	ankle_angle_r	subtalar_angle_r	mtp_angle_r	hip_flexion_l	hip_adduction_l	hip_rotation_l	knee_angle_l	knee_angle_l_beta	ankle_angle_l	subtalar_angle_l	mtp_angle_l	L5_S1_Flex_Ext	L5_S1_Lat_Bending	L5_S1_axial_rotation	L4_L5_Flex_Ext	L4_L5_Lat_Bending	L4_L5_axial_rotation	L3_L4_Flex_Ext	L3_L4_Lat_Bending	L3_L4_axial_rotation	L2_L3_Flex_Ext	L2_L3_Lat_Bending	L2_L3_axial_rotation	L1_L2_Flex_Ext	L1_L2_Lat_Bending	L1_L2_axial_rotation	L1_T12_Flex_Ext	L1_T12_Lat_Bending	L1_T12_axial_rotation	Abs_r3	Abs_r2	Abs_r1	Abs_t1	Abs_t2	neck_flexion	neck_bending	neck_rotation	arm_flex_r	arm_add_r	arm_rot_r	elbow_flex_r	pro_sup_r	wrist_flex_r	wrist_dev_r	arm_flex_l	arm_add_l	arm_rot_l	elbow_flex_l	pro_sup_l	wrist_flex_l	wrist_dev_l
15.906977	-1.763487	0.399092	95.084095	0.209933	1.108394	0.441625	3.374110	1.037941	8.504399	15.417010	0.269078	23.695414	-4.039218	0.000000	1.567504	-2.222570	-11.120519	12.337516	0.215330	21.273834	8.003252	0.000000	-0.900324	-0.419073	6.613279	-1.671992	-0.557367	7.026609	-1.479143	-1.018935	7.026609	-1.028981	-1.018935	5.786619	-0.836041	-0.854574	5.373289	-0.514445	-0.649144	4.959959	-6.430926	-4.740640	36.781072	0.000000	0.000000	-7.073936	15.851017	-39.888547	67.424463	-32.487747	4.655241	45.912573	75.542875	-14.111180	4.034904	81.784072	40.189607	163.436317	0.079555	0.908305	-17.327045	-24.419624
15.930233	-1.868360	0.196910	95.133974	0.210342	1.108057	0.441037	3.520750	0.939824	8.478117	15.395304	0.268699	23.720433	-4.270933	0.000000	1.727602	-2.145186	-11.310735	12.321361	0.215048	21.139218	8.414811	0.000000	-0.880672	-0.449307	6.527745	-1.635495	-0.597578	6.935729	-1.446855	-1.092444	6.935729	-1.006520	-1.092444	5.711777	-0.817792	-0.916226	5.303792	-0.503216	-0.695976	4.895808	-6.290549	-5.082645	36.305357	0.000000	0.000000	-6.703191	15.780069	-39.720182	67.301092	-32.098294	4.727406	46.274904	75.772804	-14.259436	4.382990	82.153487	39.972661	162.658860	0.080090	0.876246	-14.388501	-24.509759
15.953488	-1.892084	0.131583	95.179968	0.210500	1.108032	0.440831	3.544210	0.904651	8.320370	15.353780	0.267974	23.698469	-4.319174	0.000000	1.781464	-2.143792	-11.440399	12.326189	0.215133	20.980493	8.708357	0.000000	-0.871316	-0.454529	6.492989	-1.618121	-0.604524	6.898801	-1.431485	-1.105143	6.898801	-0.995827	-1.105143	5.681366	-0.809104	-0.926876	5.275554	-0.497870	-0.704066	4.869742	-6.223723	-5.141727	36.112059	0.000000	0.000000	-6.410594	15.644743	-39.682596	67.116768	-32.096738	4.850749	46.693244	76.182202	-14.280441	4.889943	82.218046	39.805033	162.480687	0.080292	0.862009	-13.530248	-24.641868
15.976744	-1.858732	0.147829	95.242014	0.210441	1.108232	0.440857	3.491968	0.910834	8.047460	15.290533	0.266870	23.648665	-4.207628	0.000000	1.775104	-2.193305	-11.502273	12.338275	0.215344	20.822746	8.911594	0.000000	-0.868245	-0.442130	6.495340	-1.612418	-0.588033	6.901299	-1.426439	-1.074996	6.901299	-0.992317	-1.074996	5.683423	-0.806252	-0.901592	5.277464	-0.496115	-0.684860	4.871505	-6.201786	-5.001467	36.125134	0.000000	0.000000	-6.239456	15.443162	-39.805539	66.873810	-32.368497	4.954065	47.228932	76.680021	-14.122654	5.633099	81.999508	39.649947	162.867934	0.080264	0.872482	-15.161806	-24.592234
16.000000	-1.757536	0.251866	95.328212	0.210153	1.108643	0.441041	3.347785	0.975589	7.678877	15.187682	0.265075	23.557616	-3.955498	0.000000	1.695367	-2.307269	-11.496039	12.344637	0.215455	20.694404	9.045270	0.000000	-0.870599	-0.411425	6.525955	-1.616789	-0.547195	6.933827	-1.430307	-1.000338	6.933827	-0.995007	-1.000338	5.710211	-0.808438	-0.838977	5.302338	-0.497460	-0.637297	4.894466	-6.218601	-4.654117	36.295403	0.000000	0.000000	-6.234772	15.164576	-40.077021	66.551784	-32.872230	5.030716	47.933875	77.322970	-13.821615	6.504241	81.540877	39.502359	163.578687	0.080187	0.907432	-19.035056	-24.375743
16.023256	-1.633758	0.441760	95.418811	0.209760	1.109196	0.441376	3.120827	1.058755	7.262807	15.070049	0.263022	23.469844	-3.581112	0.000000	1.539029	-2.439899	-11.415311	12.349946	0.215547	20.612972	9.088645	0.000000	-0.878206	-0.370429	6.598481	-1.630917	-0.492671	7.010886	-1.442805	-0.900661	7.010886	-1.003702	-0.900661	5.773671	-0.815502	-0.755379	5.361266	-0.501807	-0.573794	4.948860	-6.272940	-4.190367	36.698770	0.000000	0.000000	-6.333566	14.915808	-40.492311	65.999814	-33.630746	4.844627	48.917579	77.648692	-13.374255	7.556178	81.009934	39.444892	164.191212	0.079846	0.923898	-23.146728	-24.145588
16.046512	-1.489394	0.704341	95.513177	0.209319	1.109855	0.441764	2.809701	1.181983	6.921651	14.914458	0.260306	23.365537	-3.250426	0.000000	1.310665	-2.607552	-11.361472	12.345017	0.215461	20.593173	9.195657	0.000000	-0.889423	-0.320956	6.691336	-1.651748	-0.426871	7.109545	-1.461234	-0.780372	7.109545	-1.016522	-0.780372	5.854919	-0.825919	-0.654493	5.436711	-0.508217	-0.497160	5.018502	-6.353062	-3.630715	37.215203	0.000000	0.000000	-6.558119	14.660693	-40.957443	65.243136	-34.537042	4.362813	50.203791	77.534118	-12.754977	8.702859	80.466758	39.433117	164.499534	0.079400	0.923665	-27.394761	-23.932086
16.069767	-1.340653	1.024802	95.597907	0.208816	1.110627	0.442207	2.436206	1.315362	6.601897	14.737755	0.257222	23.268250	-2.862455	0.000000	1.022848	-2.778392	-11.252786	12.328314	0.215170	20.592248	9.216516	0.000000	-0.903452	-0.264956	6.799133	-1.677800	-0.352391	7.224079	-1.484281	-0.644213	7.224079	-1.032555	-0.644213	5.949241	-0.838945	-0.540298	5.524295	-0.516232	-0.410416	5.099350	-6.453265	-2.997231	37.814738	0.000000	0.000000	-6.877247	14.411322	-41.376346	64.183832	-35.560700	3.522333	51.917919	76.939552	-12.117147	9.928159	79.894751	39.477447	164.631301	0.078827	0.911624	-31.946097	-23.735850
16.093023	-1.159615	1.430785	95.665031	0.208176	1.111575	0.442809	1.977257	1.483508	6.296549	14.536695	0.253713	23.145875	-2.414381	0.000000	0.650877	-2.976600	-11.077716	12.295976	0.214605	20.592004	9.121092	0.000000	-0.921891	-0.197698	6.926763	-1.712044	-0.262939	7.359685	-1.514575	-0.480683	7.359685	-1.053629	-0.480683	6.060917	-0.856068	-0.403146	5.627995	-0.526768	-0.306234	5.195072	-6.584975	-2.236401	38.524576	0.000000	0.000000	-7.231979	14.184867	-41.748525	62.628969	-36.735628	2.168642	54.199856	75.901676	-11.535531	11.016643	79.254639	39.651756	164.717575	0.077991	0.890646	-36.753326	-23.558395
16.116279	-0.900432	1.975411	95.720178	0.207257	1.112782	0.443683	1.382498	1.725963	5.976752	14.309977	0.249756	22.970670	-1.899232	0.000000	0.148458	-3.244289	-10.817901	12.250957	0.213820	20.590049	8.888310	0.000000	-0.948683	-0.111625	7.083258	-1.761799	-0.148461	7.525962	-1.558591	-0.271405	7.525962	-1.084250	-0.271405	6.197851	-0.880947	-0.227626	5.755147	-0.542077	-0.172907	5.312444	-6.776346	-1.262723	39.394958	0.000000	0.000000	-7.544501	14.017187	-42.139983	60.389738	-38.131943	0.217649	57.185147	74.613047	-11.164348	11.643140	78.487546	40.056840	164.940853	0.076675	0.863527	-41.743268	-23.410646
16.139535	-0.537770	2.676775	95.713527	0.206035	1.114278	0.444885	0.642072	2.058744	5.678719	14.071715	0.245598	22.722106	-1.326618	0.000000	-0.511383	-3.593719	-10.507867	12.186412	0.212693	20.569385	8.477700	0.000000	-0.984540	-0.003246	7.278896	-1.828389	-0.004317	7.733827	-1.617501	-0.007891	7.733827	-1.125231	-0.007891	6.369034	-0.914244	-0.006618	5.914103	-0.562566	-0.005027	5.459172	-7.032470	-0.036714	40.483037	0.000000	0.000000	-7.804276	13.889774	-42.544215	57.409358	-39.665136	-2.536103	60.960818	73.931249	-11.044287	12.045152	77.545534	40.727034	165.492246	0.074807	0.830620	-46.838621	-23.304782
16.162791	-0.069825	3.526207	95.670309	0.204460	1.116047	0.446362	-0.242426	2.482535	5.355070	13.812921	0.241081	22.398122	-0.686928	0.000000	-1.318723	-4.032401	-10.156796	12.099936	0.211184	20.523925	7.939797	0.000000	-1.027850	0.126193	7.503351	-1.908820	0.167837	7.972310	-1.688654	0.306826	7.972310	-1.174729	0.306826	6.565432	-0.954461	0.257333	6.096473	-0.587313	0.195473	5.627513	-7.341828	1.427523	41.731387	0.000000	0.000000	-7.991459	13.831877	-42.966910	53.677459	-41.279784	-5.937090	65.535678	73.621661	-11.192126	12.054090	76.409875	41.649727	166.430321	0.072402	0.794448	-51.901847	-23.241527
16.186047	0.471762	4.486731	95.593817	0.202573	1.118035	0.448040	-1.234909	2.966280	5.016646	13.541028	0.236336	21.996679	-0.005652	0.000000	-2.241177	-4.528301	-9.779182	11.991940	0.209299	20.446334	7.303686	0.000000	-1.076467	0.270557	7.746880	-1.999106	0.359841	8.231060	-1.768527	0.657832	8.231060	-1.230294	0.657832	6.778520	-0.999607	0.551720	6.294340	-0.615093	0.419093	5.810160	-7.689093	3.060594	43.085821	0.000000	0.000000	-8.079490	13.855254	-43.377713	49.205783	-42.824132	-9.945800	70.936947	73.786266	-11.591475	11.704761	75.091758	42.771978	167.705714	0.069551	0.756408	-56.752757	-23.219169
16.209302	1.076388	5.530548	95.488063	0.200465	1.120180	0.449853	-2.310913	3.503516	4.659960	13.253009	0.231309	21.519574	0.708282	0.000000	-3.250164	-5.078619	-9.406281	11.869978	0.207170	20.341096	6.622807	0.000000	-1.128154	0.426260	8.001445	-2.095094	0.566926	8.501536	-1.853444	1.036409	8.501536	-1.289367	1.036409	7.001265	-1.047604	0.869230	6.501174	-0.644627	0.660277	6.001084	-8.058290	4.821941	44.501638	0.000000	0.000000	-8.043375	13.950630	-43.769089	44.043456	-44.170786	-14.483075	77.170520	74.499635	-12.319406	11.060089	73.628715	44.036217	169.275008	0.066337	0.718411	-61.262796	-23.238195
